<svg clip-rule="evenodd" fill-rule="evenodd" stroke-linejoin="round" stroke-miterlimit="2" viewBox="0 0 646 662" xmlns="http://www.w3.org/2000/svg" xmlns:xlink="http://www.w3.org/1999/xlink"><linearGradient id="a" gradientTransform="matrix(0 331 -331 0 323 331)" gradientUnits="userSpaceOnUse" x1="0" x2="1" y1="0" y2="0"><stop offset="0" stop-color="#f0f"/><stop offset="1" stop-color="#e200dc"/></linearGradient><path d="m219.475 100.448c58.434-30.414 138.062-29.392 184.86-9.366 72.078 30.844 98.919 90.203 102.624 105.32.721 4.049.886 4.008 1.198 8.12.013.991.026 1.983.038 2.974-.017 4.527-.071 4.344-.895 8.966-6.512 30.967-34.551 45.508-55.818 44.322-44.184-4.285-40.539-34.174-72.865-66.405-3.235-3.026-3.16-3.093-4.775-4.307-19.792-18.238-42.262-21.985-46.332-22.664-7.75-.455-12.809-.356-17.001.154-3.249.556-23.311 3.992-37.176 17.774l-5.317 5.763c-13.062 15.819-14.2 37.972-14.485 38.301-2.947-6.365-7.325-46.697 21.046-74.821 2.441-2.378 3.83-3.478 4.183-3.757.365-.285.731-.571 1.096-.856.29-.201.234-.259 3.573-2.576 10.935-6.608 18.637-9.862 31.104-11.589 11.516-1.037 11.411-.89 22.92.095 28.705 5.394 54.789 20.036 80.641 52.916.659.986 1.691 2.176 4.205 5.82 20.119 29.072 18.831 31.354 25.782 32.447 25.752 4.051 27.377-19.522 27.267-21.591-.248-4.659-7.562-16.869-8.387-18.247-1.479-2.542-1.418-2.563-3.014-5.032-3.483-5.303-8.629-13.334-19.977-25.117-2.773-2.777-2.639-2.702-5.522-5.54-4.783-4.536-33.293-31.578-72.835-38.522-2.01-.546-1.989-.551-4.043-.91-18.255-3.266-38.935-5.169-67.102 6.308-2.506.995-2.486.989-4.958 2.096-61.024 30.207-95.322 113.099-26.246 161.296l2.984 2.08c23.829 17.576 97.998 52.289 122.303 67.52 6.131 4.152 6.12 4.166 6.669 4.502 101.234 71.414 33.149 167.466 30.789 171.31-3.986 6.493 13.698-10.417 14.778-11.45 28.235-27.302 35.498-62.685 36.784-68.271l1.236-7.976c1.853-16.677 1.784-29.763-4.019-49.131-2.461-7.48-6.075-14.824-6.143-14.974-1.287-2.366-8.855-16.283-19.649-27.345-1.026-1.036-2.191-2.48-2.372-2.704-9.103-9.533-9.292-9.077-19.907-17.171l-2.914-2.168c-22.695-17.827-64.306-37.106-70.162-39.819l-4.004-2.014c-20.827-11.208-70.489-26.421-52.763-74.563.241-.656 4.341-11.79 6.279-6.073.64 1.888 4.691 13.846 12.956 21.292.172.153 1.083.963 2.138 1.92 22.802 20.378 96.054 47.525 134.075 78.922.31.252 3.278 2.666 3.846 3.188 9.627 8.898 21.39 18.178 37.899 43.835.446.79 1.985 3.601 2.156 3.915 1.75 3.699 13.146 27.786 15.052 48.881.54 5.005.57 4.98.911 9.986 4.954 176.726-224.735 224.91-328.564 128.85-2.133-1.88-4.73-4.459-5.131-4.857l-2.527-2.438c-3.048-3.062-4.033-4.274-4.356-4.67-3.761-4.091-30.206-32.858-36.72-58.969-.632-3.472-.657-3.45-1.018-6.957-1.272-55.301 64.454-77.064 96.278-37.696 3.332 4.379 4.516 6.648 5.161 7.826 3.578 6.007 5.556 11.429 15.765 24.228 1.171 1.64 2.693 3.227 3.203 3.852 35.652 41.996 73.228 37.87 80.259 37.098 3.028-.411 2.998-.505 6.013-1.048 15.01-3.878 23.579-11.343 25.289-12.833 1.878-1.671 1.86-1.655 3.713-3.35 19.303-19.765 18.166-44.731 18.922-44.701.635.025 7.206 29.364-6.419 56.406-1.458 2.533-1.546 2.458-3 4.978-40.813 55.587-104.667 33.143-142.477-6.812-.315-.324-.278-.35-3.87-4.12-7.317-7.93-18.277-23.917-19.757-26.076l-7.398-12.761c-13.27-19.339-38.502-6.18-38.734 10.053-.043 3.042 5.867 27.312 40.48 59.196l5.916 5.134c14.296 12.042 65.313 44.077 120.177 30.218 2.599-.709 2.579-.692 5.141-1.461 14.949-4.76 25.172-11.449 27.183-12.765.845-.563 5.397-3.407 9.889-7.215 1.58-1.382 13.672-11.955 18.329-18.779.649-.771 2.638-2.967 3.953-5.079 24.459-35.15 27.044-81.579-4.327-111.332-2.896-2.71-2.86-2.738-3.688-3.37-5.804-5.16-17.694-13.579-19.277-14.7-2.423-1.668-2.43-1.613-4.899-3.185-18.185-11.408-50.518-26.919-55.006-29.072-.319-.161-2.071-1.047-4.017-1.946-19.192-9.928-95.831-43.134-111.596-99.544-.709-2.574-.726-2.555-1.326-5.17-3.436-15.537-2.258-37.312-.436-44.989 13.462-56.723 28.532-57.057 23.602-56.948-4.817.107-46.546 40.208-52.817 82.915-.768 4.551-.874 5.547-.925 6.033-.588 5.971-4.303 43.7 15.94 73.284.085.141.085.135 2.039 3 7.27 10.403 17.53 20.288 19.208 21.905l3.74 3.297c46.382 39.461 106.96 57.483 135.969 83.909 17.222 15.689 3.91 56.425.417 53.268-.091-.082-6.098-20.729-25.73-32.994-54.809-34.243-154.37-62.649-180.32-151.611-.808-3.042-.803-3.021-1.546-6.088-16.623-96.556 39.621-144.806 71.903-168.475 2.483-1.525 2.42-1.6 4.936-3.089.121-.064.118-.065 6.957-4.011.224-.111 1.586-.782 2.789-1.41z" fill="url(#a)"/></svg>